HIERARCHY
ROOT Hips
{
  OFFSET 0 89.5177 0.535
  CHANNELS 6 Xposition Yposition Zposition Zrotation Xrotation Yrotation
  JOINT Spine
  {
    OFFSET 12.0259 -0.162855 1.69034e-005
    CHANNELS 3 Zrotation Xrotation Yrotation
    JOINT Spine1
    {
      OFFSET 15.3169 -0.0121922 0
      CHANNELS 3 Zrotation Xrotation Yrotation
      JOINT Spine2
      {
        OFFSET 15.3176 -0.0121908 0
        CHANNELS 3 Zrotation Xrotation Yrotation
        JOINT Neck
        {
          OFFSET 19.9142 1.56338 0
          CHANNELS 3 Zrotation Xrotation Yrotation
          JOINT Head
          {
            OFFSET 6.92651 0 0
            CHANNELS 3 Zrotation Xrotation Yrotation
            End Site
            {
              OFFSET 20.7666 0 0
            }
          }
          JOINT LeftShoulder
          {
            OFFSET -6.20654 0.708824 7.28219
            CHANNELS 3 Zrotation Xrotation Yrotation
            JOINT LeftArm
            {
              OFFSET 14.108 0 -1.52588e-005
              CHANNELS 3 Zrotation Xrotation Yrotation
              JOINT LeftForeArm
              {
                OFFSET 28.5802 0 0
                CHANNELS 3 Zrotation Xrotation Yrotation
                JOINT LeftHand
                {
                  OFFSET 27.092 0 0
                  CHANNELS 3 Zrotation Xrotation Yrotation
                  End Site
                  {
                    OFFSET 9.55928 -0.186424 0.145352
                  }
                }
              }
            }
          }
          JOINT RightShoulder
          {
            OFFSET -6.20654 0.708866 -7.28218
            CHANNELS 3 Zrotation Xrotation Yrotation
            JOINT RightArm
            {
              OFFSET 14.108 0 1.52588e-005
              CHANNELS 3 Zrotation Xrotation Yrotation
              JOINT RightForeArm
              {
                OFFSET 28.5802 0 0
                CHANNELS 3 Zrotation Xrotation Yrotation
                JOINT RightHand
                {
                  OFFSET 27.092 0 0
                  CHANNELS 3 Zrotation Xrotation Yrotation
                  End Site
                  {
                    OFFSET 9.55929 -0.186417 -0.145354
                  }
                }
              }
            }
          }
        }
      }
    }
  }
  JOINT LeftUpLeg
  {
    OFFSET 0.005 -0.535 8.837
    CHANNELS 3 Zrotation Xrotation Yrotation
    JOINT LeftLeg
    {
      OFFSET 39.9035 0 0
      CHANNELS 3 Zrotation Xrotation Yrotation
      JOINT LeftFoot
      {
        OFFSET 39.6689 0 0
        CHANNELS 3 Zrotation Xrotation Yrotation
        JOINT LeftToe
        {
          OFFSET 10.1624 13.6296 0
          CHANNELS 3 Zrotation Xrotation Yrotation
          End Site
          {
            OFFSET 8.38147 0 0
          }
        }
      }
    }
  }
  JOINT RightUpLeg
  {
    OFFSET 0.005 -0.535 -8.837
    CHANNELS 3 Zrotation Xrotation Yrotation
    JOINT RightLeg
    {
      OFFSET 39.9035 0 0
      CHANNELS 3 Zrotation Xrotation Yrotation
      JOINT RightFoot
      {
        OFFSET 39.6689 0 0
        CHANNELS 3 Zrotation Xrotation Yrotation
        JOINT RightToe
        {
          OFFSET 10.1624 13.6296 0
          CHANNELS 3 Zrotation Xrotation Yrotation
          End Site
          {
            OFFSET 8.38147 0 0
          }
        }
      }
    }
  }
}
MOTION
Frames:	11
Frame Time:	0.0333333
413.806 88.3339 -59.8117 -93.4897 2.75919 177.778 1.93423 -0.635483 -0.119198 3.86749 -1.27415 -0.216751 3.86749 -1.27415 -0.21676 -8.30768e-012 -9.0191e-006 -5.27751e-005 -25.2868 -31.8536 -7.21416 -179.418 -1.4895 -68.6499 -11.2847 4.85856 56.8428 -28.3289 0 7.95139e-016 -16.7035 -35.9014 -20.6406 -178.654 3.26007 67.559 -7.75135 1.20155 -62.2527 -33.155 3.97569e-016 -1.59028e-015 -34.1497 31.5009 29.2295 -3.0975 6.76138 -168.401 -11.9636 7.95139e-016 -1.59028e-015 12.5853 8.17708 -9.1761 90 0 -0 -18.9742 -19.9755 172.689 -17.6388 0 -7.95139e-016 -0.0561773 -2.62709 3.72138 90 0 6.36111e-015 
414.8 88.335 -58.6048 -93.6136 2.80706 178.055 1.89079 -0.812385 -0.00746312 3.78205 -1.6241 0.0120365 3.78205 -1.6241 0.0120272 -8.30524e-012 -9.0191e-006 -5.27751e-005 -26.0572 -33.0433 -8.19274 -179.532 -1.18508 -68.4644 -10.1549 4.8371 57.2289 -26.8936 -3.18055e-015 -2.38542e-015 -17.9426 -36.5445 -21.9355 -178.594 3.41166 67.5921 -6.9956 2.37158 -61.5738 -32.9421 -1.44274e-015 1.59028e-015 -32.2941 33.301 28.5888 -3.31894 6.38321 -167.717 -13.4306 7.95139e-016 -0 12.5983 7.95315 -9.93437 90 -2.48481e-017 1.59028e-015 -18.6321 -19.2923 173.081 -18.8687 -6.36111e-015 -1.19271e-015 1.90341 -2.44487 3.49546 90 0 -3.18055e-015 
415.697 88.3973 -57.3764 -93.8338 2.87916 178.121 1.83184 -0.967535 0.169287 3.66732 -1.92868 0.369651 3.66732 -1.92868 0.369642 -8.30913e-012 -9.0191e-006 -5.27751e-005 -26.4698 -34.0238 -8.88523 -179.616 -0.983208 -68.6693 -8.59898 3.62973 58.2805 -25.0535 6.36111e-015 2.38542e-015 -18.9668 -35.5407 -22.8176 -178.701 3.22133 68.0216 -5.13853 3.40349 -61.3193 -32.9653 0 1.59028e-015 -31.3839 37.6496 30.1145 -3.72564 6.1497 -166.802 -14.782 0 -0 12.3038 7.8335 -10.6968 90 9.93923e-017 -2.38542e-015 -18.2266 -19.2265 173.763 -19.558 3.18056e-015 7.95139e-016 3.17715 -2.53552 3.21467 90 -1.98785e-016 -0 
416.458 88.4975 -56.0916 -94.0698 3.15358 178.078 1.78815 -1.0664 0.366593 3.58402 -2.12033 0.766641 3.58402 -2.12033 0.766632 -8.30655e-012 -9.0191e-006 -5.27751e-005 -26.6488 -34.9305 -9.02421 -179.654 -0.905669 -69.0661 -7.16012 2.11913 59.458 -23.9909 0 -3.97569e-016 -18.9943 -33.7099 -22.8443 -178.691 3.2632 68.1273 -4.02056 3.96377 -60.6676 -33.6211 -2.38542e-015 -0 -32.1836 39.9519 32.0672 -4.37214 6.37261 -165.694 -16.1646 2.38542e-015 -1.59028e-015 11.7297 7.86938 -11.4945 90 -4.96962e-017 7.95139e-016 -17.5587 -19.3151 174.873 -19.5347 0 5.87036e-016 4.02205 -2.41913 2.50095 90 -1.98785e-016 6.36111e-015 
417.153 88.5703 -54.8476 -94.1929 3.63734 178.264 1.77783 -1.13628 0.505744 3.56667 -2.2558 1.04696 3.56667 -2.2558 1.04696 -8.31354e-012 -9.0191e-006 -5.27751e-005 -26.7803 -35.4131 -8.9577 -179.69 -0.824341 -69.3961 -7.16312 1.6755 60.2207 -24.1916 -3.18055e-015 1.59028e-015 -18.6916 -31.9151 -22.5705 -178.621 3.42858 68.0796 -3.89855 4.20692 -59.8497 -34.2714 -3.97569e-015 3.18055e-015 -34.201 39.5458 33.8379 -5.2502 6.89868 -164.82 -18.0826 1.59028e-015 -0 11.0098 7.51537 -12.2529 90 4.96962e-017 -0 -16.5173 -19.1752 175.871 -18.8462 3.18056e-015 1.09332e-015 4.83015 -2.55515 1.82717 90 -9.93923e-017 -0 
417.793 88.5971 -53.6873 -94.2893 4.13156 178.47 1.76126 -1.21156 0.634456 3.537 -2.4025 1.30645 3.537 -2.4025 1.30644 -8.30529e-012 -9.0191e-006 -5.27751e-005 -26.7666 -35.4417 -8.83969 -179.783 -0.583998 -69.6272 -8.64435 2.41134 60.5653 -25.0121 -6.36111e-015 -7.95139e-016 -18.5724 -30.0099 -22.1592 -178.616 3.44558 68.1055 -3.60896 4.6304 -59.2262 -34.365 1.59028e-015 1.59028e-015 -36.3373 38.4472 35.4139 -6.25466 7.4883 -164.128 -20.3162 0 -3.18055e-015 10.667 6.61077 -12.0892 90 -3.97569e-016 9.93923e-017 -15.1301 -19.4315 176.901 -17.3889 6.36111e-015 -1.98785e-016 5.47844 -2.92832 1.13228 90 -1.98785e-016 3.18055e-015 
418.399 88.5976 -52.6272 -94.3087 4.7674 178.583 1.75259 -1.24325 0.77657 3.5231 -2.46157 1.59152 3.5231 -2.46157 1.59151 -8.30569e-012 -9.0191e-006 -5.27751e-005 -26.5208 -35.3398 -8.78132 -179.865 -0.366139 -69.6888 -10.7279 3.36166 60.6651 -25.8605 6.36111e-015 4.17448e-015 -18.952 -28.0956 -21.9867 -178.638 3.39626 68.1296 -2.74567 5.49234 -58.7485 -33.8911 0 -0 -37.3799 37.9746 36.3854 -7.21973 8.23923 -163.474 -22.6394 1.59028e-015 3.18055e-015 10.5534 5.30785 -11.3671 90 -3.97569e-016 -1.98785e-016 -13.4332 -19.8839 178.024 -15.4413 0 -7.95139e-016 5.86491 -3.6488 0.497071 90 -2.48481e-017 -0 
418.904 88.6065 -51.6927 -94.3672 5.68529 178.737 1.72803 -1.24538 0.915264 3.47695 -2.46194 1.86848 3.47695 -2.46194 1.86847 -8.30947e-012 -9.0191e-006 -5.27751e-005 -26.2973 -34.9796 -8.71908 -179.869 -0.353525 -69.6495 -12.228 3.73333 60.8597 -26.3083 6.36111e-015 -2.88238e-015 -19.1876 -26.0211 -21.5426 -178.706 3.24236 68.2298 -1.63009 6.61459 -58.3477 -32.9442 -1.59028e-015 1.59028e-015 -37.5252 38.3165 37.0456 -8.24024 9.30204 -162.901 -24.8583 1.59028e-015 -1.59028e-015 10.3189 3.85692 -10.5028 90 1.19271e-015 -0 -12.2253 -19.6763 178.978 -14.0809 -3.18056e-015 -3.97569e-016 6.09003 -4.16198 -0.0385844 90 -9.70628e-020 -0 
419.326 88.6374 -50.8507 -94.4879 6.58848 178.841 1.68635 -1.26797 1.04273 3.39672 -2.504 2.12326 3.39672 -2.504 2.12325 -8.30867e-012 -9.0191e-006 -5.27751e-005 -25.9209 -34.419 -8.42088 -179.857 -0.388427 -69.7526 -12.2423 3.24204 61.3126 -26.4309 -3.18055e-015 2.5842e-015 -19.0733 -26.198 -21.3163 -178.788 3.0351 68.2275 -0.486957 7.76444 -57.9126 -31.7725 -1.59028e-015 1.59028e-015 -36.8887 38.6916 37.0929 -9.20902 10.2925 -162.359 -26.7533 -1.59028e-015 -1.59028e-015 9.9746 2.33623 -9.55391 90 0 7.95139e-016 -11.7402 -19.3012 179.728 -13.7809 0 -3.97569e-016 6.31502 -4.49727 -0.555727 90 2.42657e-020 -6.36111e-015 
419.705 88.7134 -50.1391 -94.5011 7.19745 179.029 1.67505 -1.34611 1.13599 3.37784 -2.65767 2.31196 3.37784 -2.65767 2.31195 -8.3039e-012 -9.0191e-006 -5.27751e-005 -25.696 -33.7933 -7.99855 -179.853 -0.40188 -69.8536 -11.6128 2.5286 61.7742 -27.1194 -3.18055e-015 1.98785e-016 -17.7509 -30.4156 -21.4156 -178.83 2.92671 68.2051 0.524705 8.83463 -57.5353 -30.6941 1.59028e-015 6.36111e-015 -36.0647 38.9382 36.8741 -9.94518 11.018 -162.134 -28.3436 -1.59028e-015 1.59028e-015 9.52871 0.686076 -8.31133 90 -7.95139e-016 -1.59028e-015 -10.9788 -18.5548 -179.698 -13.0685 -3.18056e-015 -0 6.33794 -4.36239 -0.918402 90 -2.42657e-020 -3.18055e-015 
420.02 88.7956 -49.5311 -94.6268 7.6019 179.197 1.64641 -1.422 1.21226 3.32405 -2.80778 2.46616 3.32405 -2.80778 2.46615 -8.30847e-012 -9.0191e-006 -5.27751e-005 -25.647 -33.3812 -7.55479 -179.864 -0.37483 -69.9875 -11.5057 2.13437 62.2309 -28.1183 9.54166e-015 -8.19987e-016 -16.9029 -34.6282 -21.5136 -178.806 2.97618 68.1361 1.55148 9.66592 -57.2324 -30.0072 -3.18055e-015 -0 -35.0029 38.8245 36.2413 -10.5897 11.3972 -162.143 -29.6065 1.59028e-015 -0 9.28995 -1.24927 -6.53972 90 -7.95139e-016 -3.18055e-015 -10.2645 -18.1588 -179.187 -12.1061 3.18056e-015 -3.97569e-016 6.17669 -4.36335 -1.23597 90 9.70628e-020 -0 
